<mxfile host="app.diagrams.net" modified="2024-03-09T04:36:59.528Z" agent="Mozilla/5.0 (Windows NT 10.0; Win64; x64) AppleWebKit/537.36 (KHTML, like Gecko) Chrome/122.0.0.0 Safari/537.36" version="24.0.2" etag="KO4KFGYikkL_hiL8UQdr" type="github">
  <diagram name="第 1 页" id="XhPicf_GymcGNn1Ssjjg">
    <mxGraphModel>
      <root>
        <mxCell id="0" />
        <mxCell id="1" parent="0" />
      </root>
    </mxGraphModel>
  </diagram>
</mxfile>
